<?xml version="1.0" encoding="UTF-8" standalone="no"?><!DOCTYPE svg PUBLIC "-//W3C//DTD SVG 1.1//EN" "http://www.w3.org/Graphics/SVG/1.1/DTD/svg11.dtd"><!-- Generated by graphviz version 2.39.20160930.0541 (20160930.0541) --><!-- Title: FlowChart Pages: 1 --><svg width="465pt" height="797pt" viewBox="0.00 0.00 465.33 797" xmlns="http://www.w3.org/2000/svg" xmlns:xlink="http://www.w3.org/1999/xlink"><defs><radialGradient id="g-terminatoraybuupdzj" cx="0.5" cy="0.5" fx="0.9" fy="0.9" r="1" x1="0%" x2="0%" y1="100%" y2="0%" spreadMethod="pad"><stop offset="0%" stop-color="#C32F06" stop-opacity="1"/><stop offset="100%" stop-color="#C32F06" stop-opacity="1"/></radialGradient><radialGradient id="g-decisionaybuupdzj" cx="0.5" cy="0.5" fx="0.9" fy="0.9" r="1" x1="0%" x2="0%" y1="100%" y2="0%" spreadMethod="pad"><stop offset="0%" stop-color="#d1461b" stop-opacity="1"/><stop offset="100%" stop-color="#d1461b" stop-opacity="1"/></radialGradient><radialGradient id="g-processaybuupdzj" cx="0.5" cy="0.5" fx="0.9" fy="0.9" r="1" x1="0%" x2="0%" y1="100%" y2="0%" spreadMethod="pad"><stop offset="0%" stop-color="#3f51b5" stop-opacity="1"/><stop offset="100%" stop-color="#3f51b5" stop-opacity="1"/></radialGradient><radialGradient id="g-defaultaybuupdzj" cx="0.5" cy="0.5" fx="0.9" fy="0.9" r="1" x1="0%" x2="0%" y1="100%" y2="0%" spreadMethod="pad"><stop offset="0%" stop-color="#005100" stop-opacity="1"/><stop offset="100%" stop-color="#005100" stop-opacity="1"/></radialGradient><radialGradient id="g-moduleaybuupdzj" cx="0.5" cy="0.5" fx="0.9" fy="0.9" r="1" x1="0%" x2="0%" y1="100%" y2="0%" spreadMethod="pad"><stop offset="0%" stop-color="#009688" stop-opacity="1"/><stop offset="100%" stop-color="#009688" stop-opacity="1"/></radialGradient><radialGradient id="g-dataioaybuupdzj" cx="0.5" cy="0.5" fx="0.9" fy="0.9" r="1" x1="0%" x2="0%" y1="100%" y2="0%" spreadMethod="pad"><stop offset="0%" stop-color="#607d8b" stop-opacity="1"/><stop offset="100%" stop-color="#607d8b" stop-opacity="1"/></radialGradient><radialGradient id="g-preparationaybuupdzj" cx="0.5" cy="0.5" fx="0.9" fy="0.9" r="1" x1="0%" x2="0%" y1="100%" y2="0%" spreadMethod="pad"><stop offset="0%" stop-color="#607d8b" stop-opacity="1"/><stop offset="100%" stop-color="#607d8b" stop-opacity="1"/></radialGradient><radialGradient id="g-commentaybuupdzj" cx="0.5" cy="0.5" fx="0.9" fy="0.9" r="1" x1="0%" x2="0%" y1="100%" y2="0%" spreadMethod="pad"><stop offset="0%" stop-color="#ffab40" stop-opacity="1"/><stop offset="100%" stop-color="#ffab40" stop-opacity="1"/></radialGradient><radialGradient id="g-manualaybuupdzj" cx="0.5" cy="0.5" fx="0.9" fy="0.9" r="1" x1="0%" x2="0%" y1="100%" y2="0%" spreadMethod="pad"><stop offset="0%" stop-color="#673ab7" stop-opacity="1"/><stop offset="100%" stop-color="#673ab7" stop-opacity="1"/></radialGradient></defs><g id="page0,1_graph0" class="graph" transform="scale(0.486607 0.486607) rotate(0) translate(4 1623.6)"><title>FlowChart</title><g id="clust5" class="cluster"><title>cluster_block_16</title><polygon fill="transparent" stroke="#000000" points="474,-8 474,-1157.1 930,-1157.1 930,-8 474,-8"/><text text-anchor="start" x="673.5" y="-1145.1" font-family="Open Sans, Noto Sans SC, Noto Sans TC, Noto Sans JP, Noto Sans KR" font-size="10.00" fill="#000000">eth_drv_add</text></g><g id="clust7" class="cluster"><title>cluster_block_20</title><polygon fill="transparent" stroke="#000000" points="494,-700.598 494,-882.598 839,-882.598 839,-700.598 494,-700.598"/><text text-anchor="start" x="622.5" y="-870.598" font-family="Open Sans, Noto Sans SC, Noto Sans TC, Noto Sans JP, Noto Sans KR" font-size="10.00" fill="#000000">Register rx handler</text></g><g id="clust8" class="cluster"><title>cluster_block_25</title><polygon fill="transparent" stroke="#000000" points="494,-257 494,-603 910,-603 910,-257 494,-257"/><text text-anchor="start" x="646.5" y="-591" font-family="Open Sans, Noto Sans SC, Noto Sans TC, Noto Sans JP, Noto Sans KR" font-size="10.00" fill="#000000">Register Tunnel handler</text></g><g id="clust1" class="cluster"><title>cluster_block_8</title><polygon fill="transparent" stroke="#000000" points="8,-976.598 8,-1602.1 274,-1602.1 274,-976.598 8,-976.598"/><text text-anchor="start" x="92" y="-1590.1" font-family="Open Sans, Noto Sans SC, Noto Sans TC, Noto Sans JP, Noto Sans KR" font-size="10.00" fill="#000000">vr_host_interface_init</text></g><g id="clust6" class="cluster"><title>cluster_block_11</title><polygon fill="transparent" stroke="#000000" points="28,-1062.1 28,-1365.6 254,-1365.6 254,-1062.1 28,-1062.1"/><text text-anchor="start" x="105.5" y="-1353.6" font-family="Open Sans, Noto Sans SC, Noto Sans TC, Noto Sans JP, Noto Sans KR" font-size="10.00" fill="#000000">linux_if_notifier</text></g><g id="clust2" class="cluster"><title>cluster_block_1</title><polygon fill="transparent" stroke="#000000" points="274,-1382.6 274,-1611.6 450,-1611.6 450,-1382.6 274,-1382.6"/><text text-anchor="start" x="306.5" y="-1600.6" font-family="Open Sans, Noto Sans SC, Noto Sans TC, Noto Sans JP, Noto Sans KR" font-weight="bold" font-size="10.00" fill="#000000">Interface Initialization</text><text text-anchor="start" x="332.5" y="-1590.6" font-family="Open Sans, Noto Sans SC, Noto Sans TC, Noto Sans JP, Noto Sans KR" font-weight="bold" font-size="10.00" fill="#000000">vr_interface</text></g><g id="clust3" class="cluster"><title>cluster_block_3</title><polygon fill="transparent" stroke="#000000" points="294,-1402.6 294,-1497.6 430,-1497.6 430,-1402.6 294,-1402.6"/><text text-anchor="start" x="328" y="-1485.6" font-family="Open Sans, Noto Sans SC, Noto Sans TC, Noto Sans JP, Noto Sans KR" font-size="10.00" fill="#000000">vr_host_vif_init</text></g><g id="clust4" class="cluster"><title>cluster_block_5</title><polygon fill="transparent" stroke="#000000" points="274,-1061.6 274,-1261.6 474,-1261.6 474,-1061.6 274,-1061.6"/><text text-anchor="start" x="352" y="-1249.6" font-family="Open Sans, Noto Sans SC, Noto Sans TC, Noto Sans JP, Noto Sans KR" font-size="10.00" fill="#000000">vif_attach</text></g><!-- terminator_block_9 --><g id="node1" class="node"><title>terminator_block_9</title><ellipse fill="url(#g-terminatoraybuupdzj)" stroke="#C32F06" cx="212" cy="-1545.1" rx="35.1405" ry="18"/><text text-anchor="start" x="190" y="-1542.6" font-family="Open Sans, Noto Sans SC, Noto Sans TC, Noto Sans JP, Noto Sans KR" font-size="10.00" fill="white">vhost_init</text></g><!-- module_block_10 --><g id="node6" class="node"><title>module_block_10</title><polygon fill="url(#g-moduleaybuupdzj)" stroke="#009688" points="72,-1416.6 72,-1464.6 74,-1464.6 74,-1416.6 72,-1416.6"/><polygon fill="url(#g-moduleaybuupdzj)" stroke="#009688" points="74,-1416.6 74,-1464.6 236,-1464.6 236,-1416.6 74,-1416.6"/><text text-anchor="start" x="87" y="-1443.6" font-family="Open Sans, Noto Sans SC, Noto Sans TC, Noto Sans JP, Noto Sans KR" font-size="10.00" fill="white">register_netdevice_notifier as</text><text text-anchor="start" x="119.5" y="-1432.6" font-family="Open Sans, Noto Sans SC, Noto Sans TC, Noto Sans JP, Noto Sans KR" font-size="10.00" fill="white">linux_if_notifier</text><polygon fill="url(#g-moduleaybuupdzj)" stroke="#009688" points="236,-1416.6 236,-1464.6 239,-1464.6 239,-1416.6 236,-1416.6"/></g><!-- terminator_block_9&#45;&gt;module_block_10 --><g id="edge5" class="edge"><title>terminator_block_9->module_block_10</title><path fill="none" stroke="#000000" d="M202.331,-1527.37C194.325,-1512.69 182.73,-1491.44 173.021,-1473.64"/><polygon fill="#000000" stroke="#000000" points="176.005,-1471.8 168.144,-1464.7 169.86,-1475.15 176.005,-1471.8"/></g><!-- terminator_block_4 --><g id="node2" class="node"><title>terminator_block_4</title><ellipse fill="url(#g-terminatoraybuupdzj)" stroke="#C32F06" cx="362" cy="-1440.6" rx="48.0418" ry="18"/><text text-anchor="start" x="329" y="-1438.1" font-family="Open Sans, Noto Sans SC, Noto Sans TC, Noto Sans JP, Noto Sans KR" font-size="10.00" fill="white">vr_gro_vif_add</text></g><!-- terminator_block_6 --><g id="node3" class="node"><title>terminator_block_6</title><ellipse fill="url(#g-terminatoraybuupdzj)" stroke="#C32F06" cx="374" cy="-1204.6" rx="80.1164" ry="18"/><text text-anchor="start" x="314" y="-1202.1" font-family="Open Sans, Noto Sans SC, Noto Sans TC, Noto Sans JP, Noto Sans KR" font-size="10.00" fill="white">Invoke registered method</text></g><!-- module_block_7 --><g id="node4" class="node"><title>module_block_7</title><polygon fill="url(#g-moduleaybuupdzj)" stroke="#009688" points="357,-1081.1 357,-1118.1 359,-1118.1 359,-1081.1 357,-1081.1"/><polygon fill="url(#g-moduleaybuupdzj)" stroke="#009688" points="359,-1081.1 359,-1118.1 442,-1118.1 442,-1081.1 359,-1081.1"/><text text-anchor="start" x="372" y="-1097.1" font-family="Open Sans, Noto Sans SC, Noto Sans TC, Noto Sans JP, Noto Sans KR" font-size="10.00" fill="white">eth_drv_add</text><polygon fill="url(#g-moduleaybuupdzj)" stroke="#009688" points="442,-1081.1 442,-1118.1 445,-1118.1 445,-1081.1 442,-1081.1"/></g><!-- terminator_block_6&#45;&gt;module_block_7 --><g id="edge3" class="edge"><title>terminator_block_6->module_block_7</title><path fill="none" stroke="#000000" d="M378.703,-1186.4C382.814,-1170.48 388.853,-1147.11 393.61,-1128.7"/><polygon fill="#000000" stroke="#000000" points="397.056,-1129.35 396.169,-1118.8 390.279,-1127.6 397.056,-1129.35"/></g><!-- terminator_block_17 --><g id="node5" class="node"><title>terminator_block_17</title><ellipse fill="url(#g-terminatoraybuupdzj)" stroke="#C32F06" cx="534" cy="-1100.1" rx="30.0436" ry="18"/><text text-anchor="start" x="516.5" y="-1097.6" font-family="Open Sans, Noto Sans SC, Noto Sans TC, Noto Sans JP, Noto Sans KR" font-size="10.00" fill="white">set mtu</text></g><!-- module_block_7&#45;&gt;terminator_block_17 --><g id="edge4" class="edge"><title>module_block_7->terminator_block_17</title><path fill="none" stroke="#000000" stroke-dasharray="1,5" d="M445.16,-1100.1C464.71,-1100.1 484.259,-1100.1 503.808,-1100.1"/></g><!-- process_block_18 --><g id="node12" class="node"><title>process_block_18</title><polygon fill="url(#g-processaybuupdzj)" stroke="#3f51b5" points="603.5,-1032.6 502.5,-1032.6 502.5,-996.598 603.5,-996.598 603.5,-1032.6"/><text text-anchor="start" x="509.5" y="-1012.1" font-family="Open Sans, Noto Sans SC, Noto Sans TC, Noto Sans JP, Noto Sans KR" font-size="10.00" fill="white">Register tx handler</text></g><!-- terminator_block_17&#45;&gt;process_block_18 --><g id="edge11" class="edge"><title>terminator_block_17->process_block_18</title><path fill="none" stroke="#000000" d="M538.029,-1081.97C540.574,-1070.52 543.912,-1055.49 546.79,-1042.54"/><polygon fill="#000000" stroke="#000000" points="550.224,-1043.23 548.976,-1032.7 543.39,-1041.71 550.224,-1043.23"/></g><!-- terminator_block_12 --><g id="node7" class="node"><title>terminator_block_12</title><ellipse fill="url(#g-terminatoraybuupdzj)" stroke="#C32F06" cx="141" cy="-1308.6" rx="93.0175" ry="18"/><text text-anchor="start" x="70" y="-1306.1" font-family="Open Sans, Noto Sans SC, Noto Sans TC, Noto Sans JP, Noto Sans KR" font-size="10.00" fill="white">Identified vif by name - vif_find</text></g><!-- module_block_10&#45;&gt;terminator_block_12 --><g id="edge6" class="edge"><title>module_block_10->terminator_block_12</title><path fill="none" stroke="#000000" d="M152.432,-1416.39C150.05,-1393.93 146.504,-1360.5 143.994,-1336.83"/><polygon fill="#000000" stroke="#000000" points="147.457,-1336.29 142.922,-1326.72 140.496,-1337.03 147.457,-1336.29"/></g><!-- module_block_13 --><g id="node8" class="node"><title>module_block_13</title><polygon fill="url(#g-moduleaybuupdzj)" stroke="#009688" points="136,-1185.6 136,-1222.6 138,-1222.6 138,-1185.6 136,-1185.6"/><polygon fill="url(#g-moduleaybuupdzj)" stroke="#009688" points="138,-1185.6 138,-1222.6 208,-1222.6 208,-1185.6 138,-1185.6"/><text text-anchor="start" x="151" y="-1201.6" font-family="Open Sans, Noto Sans SC, Noto Sans TC, Noto Sans JP, Noto Sans KR" font-size="10.00" fill="white">vif_attach</text><polygon fill="url(#g-moduleaybuupdzj)" stroke="#009688" points="208,-1185.6 208,-1222.6 211,-1222.6 211,-1185.6 208,-1185.6"/></g><!-- terminator_block_12&#45;&gt;module_block_13 --><g id="edge7" class="edge"><title>terminator_block_12->module_block_13</title><path fill="none" stroke="#000000" d="M146.574,-1290.48C151.469,-1274.57 158.671,-1251.17 164.32,-1232.81"/><polygon fill="#000000" stroke="#000000" points="167.679,-1233.79 167.274,-1223.21 160.988,-1231.73 167.679,-1233.79"/></g><!-- module_block_13&#45;&gt;terminator_block_6 --><g id="edge8" class="edge"><title>module_block_13->terminator_block_6</title><path fill="none" stroke="#000000" stroke-dasharray="1,5" d="M210.688,-1204.6C238.438,-1204.6 266.188,-1204.6 293.939,-1204.6"/></g><!-- process_block_14 --><g id="node9" class="node"><title>process_block_14</title><polygon fill="url(#g-processaybuupdzj)" stroke="#3f51b5" points="222.5,-1118.1 123.5,-1118.1 123.5,-1082.1 222.5,-1082.1 222.5,-1118.1"/><text text-anchor="start" x="130.5" y="-1097.6" font-family="Open Sans, Noto Sans SC, Noto Sans TC, Noto Sans JP, Noto Sans KR" font-size="10.00" fill="white">vhost_attach_phys</text></g><!-- module_block_13&#45;&gt;process_block_14 --><g id="edge9" class="edge"><title>module_block_13->process_block_14</title><path fill="none" stroke="#000000" d="M173,-1185.92C173,-1169.92 173,-1146.64 173,-1128.36"/><polygon fill="#000000" stroke="#000000" points="176.5,-1128.27 173,-1118.27 169.5,-1128.27 176.5,-1128.27"/></g><!-- terminator_block_15 --><g id="node10" class="node"><title>terminator_block_15</title><ellipse fill="url(#g-terminatoraybuupdzj)" stroke="#C32F06" cx="173" cy="-1014.6" rx="70.1018" ry="18"/><text text-anchor="start" x="121.5" y="-1012.1" font-family="Open Sans, Noto Sans SC, Noto Sans TC, Noto Sans JP, Noto Sans KR" font-size="10.00" fill="white">vr_linux_interface_ops</text></g><!-- process_block_14&#45;&gt;terminator_block_15 --><g id="edge10" class="edge"><title>process_block_14->terminator_block_15</title><path fill="none" stroke="#000000" d="M173,-1081.97C173,-1070.63 173,-1055.79 173,-1042.93"/><polygon fill="#000000" stroke="#000000" points="176.5,-1042.7 173,-1032.7 169.5,-1042.7 176.5,-1042.7"/></g><!-- module_block_2 --><g id="node11" class="node"><title>module_block_2</title><polygon fill="url(#g-moduleaybuupdzj)" stroke="#009688" points="296,-1526.1 296,-1563.1 298,-1563.1 298,-1526.1 296,-1526.1"/><polygon fill="url(#g-moduleaybuupdzj)" stroke="#009688" points="298,-1526.1 298,-1563.1 422,-1563.1 422,-1526.1 298,-1526.1"/><text text-anchor="start" x="311" y="-1542.1" font-family="Open Sans, Noto Sans SC, Noto Sans TC, Noto Sans JP, Noto Sans KR" font-size="10.00" fill="white">vr_host_interface_init</text><polygon fill="url(#g-moduleaybuupdzj)" stroke="#009688" points="422,-1526.1 422,-1563.1 425,-1563.1 425,-1526.1 422,-1526.1"/></g><!-- module_block_2&#45;&gt;terminator_block_9 --><g id="edge1" class="edge"><title>module_block_2->terminator_block_9</title><path fill="none" stroke="#000000" stroke-dasharray="1,5" d="M295.432,-1545.1C279.473,-1545.1 263.514,-1545.1 247.555,-1545.1"/></g><!-- module_block_2&#45;&gt;terminator_block_4 --><g id="edge2" class="edge"><title>module_block_2->terminator_block_4</title><path fill="none" stroke="#000000" d="M360.358,-1526.42C360.664,-1510.42 361.109,-1487.14 361.459,-1468.86"/><polygon fill="#000000" stroke="#000000" points="364.96,-1468.83 361.652,-1458.77 357.961,-1468.7 364.96,-1468.83"/></g><!-- process_block_19 --><g id="node13" class="node"><title>process_block_19</title><polygon fill="url(#g-processaybuupdzj)" stroke="#3f51b5" points="636,-947.598 502,-947.598 502,-911.598 636,-911.598 636,-947.598"/><text text-anchor="start" x="509" y="-927.098" font-family="Noto Mono" font-size="10.00" fill="white">vif->vif_tx = eth_tx</text></g><!-- process_block_18&#45;&gt;process_block_19 --><g id="edge12" class="edge"><title>process_block_18->process_block_19</title><path fill="none" stroke="#000000" d="M556.393,-996.572C558.514,-985.302 561.291,-970.55 563.699,-957.761"/><polygon fill="#000000" stroke="#000000" points="567.201,-958.073 565.612,-947.598 560.322,-956.778 567.201,-958.073"/></g><!-- ifs_block_21 --><g id="node14" class="node"><title>ifs_block_21</title><polygon fill="url(#g-decisionaybuupdzj)" stroke="#d1461b" points="578,-843.598 529.93,-825.598 578,-807.598 626.07,-825.598 578,-843.598"/><text text-anchor="start" x="557" y="-823.098" font-family="Open Sans, Noto Sans SC, Noto Sans TC, Noto Sans JP, Noto Sans KR" font-size="10.00" fill="white">vif virtual</text></g><!-- process_block_19&#45;&gt;ifs_block_21 --><g id="edge13" class="edge"><title>process_block_19->ifs_block_21</title><path fill="none" stroke="#000000" d="M570.568,-911.483C571.957,-895.428 574.007,-871.742 575.602,-853.308"/><polygon fill="#000000" stroke="#000000" points="579.105,-853.424 576.48,-843.159 572.131,-852.82 579.105,-853.424"/></g><!-- process_block_22 --><g id="node15" class="node"><title>process_block_22</title><polygon fill="url(#g-processaybuupdzj)" stroke="#3f51b5" points="642,-756.598 514,-756.598 514,-720.598 642,-720.598 642,-756.598"/><text text-anchor="start" x="545.5" y="-741.598" font-family="Open Sans, Noto Sans SC, Noto Sans TC, Noto Sans JP, Noto Sans KR" font-size="10.00" fill="white">Register vif_rx</text><text text-anchor="start" x="521" y="-731.598" font-family="Noto Mono" font-size="10.00" fill="white">vif->vif_rx = vm_rx</text></g><!-- ifs_block_21&#45;&gt;process_block_22 --><g id="edge14" class="edge"><title>ifs_block_21->process_block_22</title><path fill="none" stroke="#000000" d="M578,-807.572C578,-795.79 578,-780.159 578,-766.756"/><polygon fill="#000000" stroke="#000000" points="581.5,-766.601 578,-756.601 574.5,-766.601 581.5,-766.601"/><text text-anchor="start" x="578" y="-780.598" font-family="Open Sans, Noto Sans SC, Noto Sans TC, Noto Sans JP, Noto Sans KR" font-weight="bold" font-size="10.00" fill="#000000"> True </text><polyline fill="none" stroke="#000000" points="606,-776.598 578,-776.598 "/></g><!-- process_block_23 --><g id="node16" class="node"><title>process_block_23</title><polygon fill="url(#g-processaybuupdzj)" stroke="#3f51b5" points="819,-756.598 685,-756.598 685,-720.598 819,-720.598 819,-756.598"/><text text-anchor="start" x="719.5" y="-741.598" font-family="Open Sans, Noto Sans SC, Noto Sans TC, Noto Sans JP, Noto Sans KR" font-size="10.00" fill="white">Register vif_rx</text><text text-anchor="start" x="692" y="-731.598" font-family="Noto Mono" font-size="10.00" fill="white">vif->vif_rx = eth_tx</text></g><!-- ifs_block_21&#45;&gt;process_block_23 --><g id="edge15" class="edge"><title>ifs_block_21->process_block_23</title><path fill="none" stroke="#000000" d="M598.643,-815.276C625.17,-802.013 671.959,-778.619 706.901,-761.147"/><polygon fill="#000000" stroke="#000000" points="708.583,-764.22 715.962,-756.617 705.452,-757.959 708.583,-764.22"/><text text-anchor="start" x="675" y="-780.598" font-family="Open Sans, Noto Sans SC, Noto Sans TC, Noto Sans JP, Noto Sans KR" font-weight="bold" font-size="10.00" fill="#000000"> False </text><polyline fill="none" stroke="#000000" points="705,-776.598 675.322,-776.598 "/></g><!-- terminator_block_24 --><g id="node17" class="node"><title>terminator_block_24</title><ellipse fill="url(#g-terminatoraybuupdzj)" stroke="#C32F06" cx="702" cy="-651.799" rx="129.301" ry="19.6"/><text text-anchor="start" x="618.5" y="-654.799" font-family="Open Sans, Noto Sans SC, Noto Sans TC, Noto Sans JP, Noto Sans KR" font-size="10.00" fill="white">Invoke host interface registered ops</text><text text-anchor="start" x="654" y="-644.799" font-family="Noto Mono" font-size="10.00" fill="white">hif_ops->hif_add</text></g><!-- process_block_22&#45;&gt;terminator_block_24 --><g id="edge16" class="edge"><title>process_block_22->terminator_block_24</title><path fill="none" stroke="#000000" d="M603.994,-720.402C622.015,-707.788 646.246,-690.826 666.105,-676.925"/><polygon fill="#000000" stroke="#000000" points="668.133,-679.778 674.318,-671.176 664.118,-674.044 668.133,-679.778"/></g><!-- process_block_23&#45;&gt;terminator_block_24 --><g id="edge17" class="edge"><title>process_block_23->terminator_block_24</title><path fill="none" stroke="#000000" d="M741.396,-720.19C734.735,-708.626 726.005,-693.471 718.457,-680.367"/><polygon fill="#000000" stroke="#000000" points="721.484,-678.61 713.459,-671.692 715.418,-682.104 721.484,-678.61"/></g><!-- ifs_block_26 --><g id="node18" class="node"><title>ifs_block_26</title><polygon fill="url(#g-decisionaybuupdzj)" stroke="#d1461b" points="702,-564 537.332,-546 702,-528 866.668,-546 702,-564"/><text text-anchor="start" x="611" y="-543.5" font-family="Open Sans, Noto Sans SC, Noto Sans TC, Noto Sans JP, Noto Sans KR" font-size="10.00" fill="white">vif_type is physical and encap_type is l3</text></g><!-- terminator_block_24&#45;&gt;ifs_block_26 --><g id="edge18" class="edge"><title>terminator_block_24->ifs_block_26</title><path fill="none" stroke="#000000" d="M702,-631.899C702,-615.587 702,-592.304 702,-574.092"/><polygon fill="#000000" stroke="#000000" points="705.5,-574.047 702,-564.047 698.5,-574.047 705.5,-574.047"/></g><!-- process_block_27 --><g id="node19" class="node"><title>process_block_27</title><polygon fill="url(#g-processaybuupdzj)" stroke="#3f51b5" points="683,-477 543,-477 543,-441 683,-441 683,-477"/><text text-anchor="start" x="550" y="-456.5" font-family="Noto Mono" font-size="10.00" fill="white">vif->vif_rx = tun_rx;</text></g><!-- ifs_block_26&#45;&gt;process_block_27 --><g id="edge19" class="edge"><title>ifs_block_26->process_block_27</title><path fill="none" stroke="#000000" d="M685.26,-529.636C672.224,-516.894 653.898,-498.979 638.963,-484.38"/><polygon fill="#000000" stroke="#000000" points="641.106,-481.58 631.508,-477.092 636.213,-486.586 641.106,-481.58"/><text text-anchor="start" x="662" y="-501" font-family="Open Sans, Noto Sans SC, Noto Sans TC, Noto Sans JP, Noto Sans KR" font-weight="bold" font-size="10.00" fill="#000000"> True </text><polyline fill="none" stroke="#000000" points="690,-497 652.176,-497 "/></g><!-- ifs_block_28 --><g id="node20" class="node"><title>ifs_block_28</title><polygon fill="url(#g-decisionaybuupdzj)" stroke="#d1461b" points="702,-400 513.712,-382 702,-364 890.288,-382 702,-400"/><text text-anchor="start" x="597" y="-379.5" font-family="Open Sans, Noto Sans SC, Noto Sans TC, Noto Sans JP, Noto Sans KR" font-size="10.00" fill="white">vif_type physical and encap_type is l3 decrypt</text></g><!-- ifs_block_26&#45;&gt;ifs_block_28 --><g id="edge21" class="edge"><title>ifs_block_26->ifs_block_28</title><path fill="none" stroke="#000000" d="M703.116,-527.791C704.261,-506.852 705.774,-471.445 705,-441 704.744,-430.91 704.241,-419.86 703.719,-410.078"/><polygon fill="#000000" stroke="#000000" points="707.213,-409.854 703.157,-400.066 700.224,-410.247 707.213,-409.854"/><text text-anchor="start" x="705" y="-457.5" font-family="Open Sans, Noto Sans SC, Noto Sans TC, Noto Sans JP, Noto Sans KR" font-weight="bold" font-size="10.00" fill="#000000"> False </text><polyline fill="none" stroke="#000000" points="735,-453.5 705.188,-453.5 "/></g><!-- process_block_27&#45;&gt;ifs_block_28 --><g id="edge20" class="edge"><title>process_block_27->ifs_block_28</title><path fill="none" stroke="#000000" d="M634.092,-440.752C646.437,-430.072 662.141,-416.485 675.338,-405.067"/><polygon fill="#000000" stroke="#000000" points="677.906,-407.474 683.178,-398.284 673.326,-402.18 677.906,-407.474"/></g><!-- process_block_29 --><g id="node21" class="node"><title>process_block_29</title><polygon fill="url(#g-processaybuupdzj)" stroke="#3f51b5" points="718,-313 572,-313 572,-277 718,-277 718,-313"/><text text-anchor="start" x="579" y="-292.5" font-family="Noto Mono" font-size="10.00" fill="white">vif->vif_rx = ipsec_rx</text></g><!-- ifs_block_28&#45;&gt;process_block_29 --><g id="edge22" class="edge"><title>ifs_block_28->process_block_29</title><path fill="none" stroke="#000000" d="M669.144,-367.08C660.031,-361.243 651.215,-353.602 646,-344 642.617,-337.77 641.33,-330.406 641.133,-323.305"/><polygon fill="#000000" stroke="#000000" points="644.633,-323.376 641.507,-313.253 637.638,-323.116 644.633,-323.376"/><text text-anchor="start" x="646" y="-337" font-family="Open Sans, Noto Sans SC, Noto Sans TC, Noto Sans JP, Noto Sans KR" font-weight="bold" font-size="10.00" fill="#000000"> True </text><polyline fill="none" stroke="#000000" points="674,-333 642.372,-333 "/></g><!-- terminator_block_30 --><g id="node22" class="node"><title>terminator_block_30</title><ellipse fill="url(#g-terminatoraybuupdzj)" stroke="#C32F06" cx="702" cy="-210" rx="81.4717" ry="18"/><text text-anchor="start" x="641" y="-207.5" font-family="Open Sans, Noto Sans SC, Noto Sans TC, Noto Sans JP, Noto Sans KR" font-size="10.00" fill="white">Register host interface tap</text></g><!-- ifs_block_28&#45;&gt;terminator_block_30 --><g id="edge24" class="edge"><title>ifs_block_28->terminator_block_30</title><path fill="none" stroke="#000000" d="M714.452,-365.164C723.526,-351.791 735.061,-332.205 740,-313 746.199,-288.895 748.299,-280.464 740,-257 737.294,-249.349 732.754,-242.031 727.736,-235.543"/><polygon fill="#000000" stroke="#000000" points="730.343,-233.204 721.226,-227.806 724.987,-237.711 730.343,-233.204"/><text text-anchor="start" x="745" y="-293.5" font-family="Open Sans, Noto Sans SC, Noto Sans TC, Noto Sans JP, Noto Sans KR" font-weight="bold" font-size="10.00" fill="#000000"> False </text><polyline fill="none" stroke="#000000" points="775,-289.5 745.103,-289.5 "/></g><!-- process_block_29&#45;&gt;terminator_block_30 --><g id="edge23" class="edge"><title>process_block_29->terminator_block_30</title><path fill="none" stroke="#000000" d="M657.088,-276.974C664.948,-265.254 675.333,-249.767 684.137,-236.638"/><polygon fill="#000000" stroke="#000000" points="687.267,-238.255 689.929,-228 681.453,-234.356 687.267,-238.255"/></g><!-- ifs_block_31 --><g id="node23" class="node"><title>ifs_block_31</title><polygon fill="url(#g-decisionaybuupdzj)" stroke="#d1461b" points="702,-151 532.342,-133 702,-115 871.658,-133 702,-151"/><text text-anchor="start" x="608" y="-130.5" font-family="Open Sans, Noto Sans SC, Noto Sans TC, Noto Sans JP, Noto Sans KR" font-size="10.00" fill="white">vif is bridge and encap_type is l3 decrypt</text></g><!-- terminator_block_30&#45;&gt;ifs_block_31 --><g id="edge25" class="edge"><title>terminator_block_30->ifs_block_31</title><path fill="none" stroke="#000000" d="M702,-191.752C702,-182.642 702,-171.417 702,-161.228"/><polygon fill="#000000" stroke="#000000" points="705.5,-161.117 702,-151.117 698.5,-161.117 705.5,-161.117"/></g><!-- terminator_block_32 --><g id="node24" class="node"><title>terminator_block_32</title><ellipse fill="url(#g-terminatoraybuupdzj)" stroke="#C32F06" cx="702" cy="-46" rx="101.001" ry="18"/><text text-anchor="start" x="624" y="-43.5" font-family="Noto Mono" font-size="10.00" fill="white">hif_ops->hif_add_tap(vif);</text></g><!-- ifs_block_31&#45;&gt;terminator_block_32 --><g id="edge26" class="edge"><title>ifs_block_31->terminator_block_32</title><path fill="none" stroke="#000000" d="M702,-114.974C702,-103.192 702,-87.5607 702,-74.1581"/><polygon fill="#000000" stroke="#000000" points="705.5,-74.0033 702,-64.0034 698.5,-74.0034 705.5,-74.0033"/><text text-anchor="start" x="702" y="-88" font-family="Open Sans, Noto Sans SC, Noto Sans TC, Noto Sans JP, Noto Sans KR" font-weight="bold" font-size="10.00" fill="#000000"> True </text><polyline fill="none" stroke="#000000" points="730,-84 702,-84 "/></g></g></svg>